<svg width="35" height="34" viewBox="0 0 35 34" fill="none" xmlns="http://www.w3.org/2000/svg">
<path d="M6.90234 24.4561C12.644 24.4561 17.3169 28.7041 17.4756 34H10.5C5.76149 34 1.79535 30.7036 0.763672 26.2793C2.49467 25.1318 4.61341 24.4561 6.90234 24.4561ZM34.5 17.3018V24C34.5 29.5228 30.0228 34 24.5 34H22.6699C22.2193 32.694 21.9736 31.2883 21.9736 29.8242C21.9738 22.9063 27.4489 17.2979 34.2021 17.2979L34.5 17.3018ZM15.0566 0C16.358 2.02942 17.1221 4.50544 17.1221 7.17773C17.1221 14.0628 12.0482 19.6444 5.78906 19.6445C3.99834 19.6445 2.30448 19.1875 0.798828 18.374L0.5 18.207V10C0.5 4.47715 4.97715 2.2549e-07 10.5 0H15.0566ZM24.5 0C29.9097 0 34.313 4.29574 34.4912 9.66211C33.5012 9.94676 32.4491 10.1006 31.3584 10.1006C25.5165 10.1005 20.7803 5.70296 20.7803 0.27832C20.7803 0.185239 20.7824 0.0924597 20.7852 0H24.5Z" fill="#F8FFE9"/>
</svg>
