<svg width="193" height="46" viewBox="0 0 193 46" fill="black" xmlns="http://www.w3.org/2000/svg">
<path d="M8.41189 18.3402C8.41504 18.2771 8.42157 18.215 8.42578 18.1522C8.43306 18.0433 8.43926 17.9341 8.44994 17.8262C8.4573 17.751 8.46846 17.6769 8.47747 17.6022C8.48889 17.5077 8.49856 17.4126 8.51246 17.3188C8.52395 17.2414 8.53917 17.1652 8.55231 17.0884C8.5677 16.9985 8.58142 16.9081 8.59904 16.819C8.6145 16.7411 8.63361 16.6645 8.65081 16.5872C8.67008 16.5004 8.68769 16.4131 8.70911 16.3271C8.72888 16.2478 8.7522 16.1699 8.77378 16.0913C8.79636 16.0089 8.81728 15.9258 8.84184 15.8442C8.86616 15.7634 8.89394 15.6842 8.92016 15.6042C8.94572 15.5262 8.96961 15.4474 8.9969 15.3702C9.02536 15.2897 9.05728 15.2109 9.08763 15.1313C9.11624 15.0562 9.14328 14.9803 9.17363 14.906C9.20597 14.8265 9.24178 14.7488 9.27601 14.6703C9.30785 14.5975 9.33804 14.5239 9.37145 14.4519C9.40759 14.3739 9.44704 14.2977 9.48499 14.2208C9.51989 14.1501 9.5533 14.0786 9.58969 14.0088C9.63021 13.9311 9.67387 13.8554 9.71622 13.7789C9.75343 13.7117 9.78916 13.6436 9.82778 13.5773C9.87261 13.5003 9.92049 13.4253 9.96713 13.3495C10.0066 13.2856 10.0445 13.2207 10.0852 13.1576C10.1339 13.0822 10.1855 13.0089 10.2361 12.9347C10.2779 12.8733 10.3184 12.811 10.3614 12.7505C10.4142 12.6764 10.4699 12.6045 10.5244 12.5317C10.5683 12.4734 10.6107 12.4141 10.6556 12.3567C10.7122 12.2845 10.7714 12.2146 10.8297 12.1439C10.8758 12.088 10.9205 12.0312 10.9676 11.9763C11.0274 11.9066 11.0898 11.8393 11.1513 11.7712C11.1998 11.7176 11.247 11.6629 11.2965 11.6102C11.3598 11.5429 11.4255 11.478 11.4905 11.4124C11.541 11.3613 11.5903 11.3091 11.6418 11.259C11.7082 11.1944 11.777 11.1323 11.8451 11.0693C11.8978 11.0206 11.9494 10.9707 12.003 10.923C12.0722 10.8614 12.1439 10.8024 12.2147 10.7424C12.2696 10.696 12.3236 10.6484 12.3794 10.603C12.4512 10.5447 12.5253 10.489 12.5985 10.4324C12.6559 10.3881 12.7123 10.3427 12.7706 10.2995C12.845 10.2444 12.9214 10.1921 12.9972 10.1388C13.0567 10.0969 13.1153 10.0539 13.1757 10.0132C13.2529 9.96127 13.3319 9.912 13.4105 9.86193C13.4718 9.82284 13.5322 9.78254 13.5943 9.74457C13.6733 9.6963 13.7543 9.65085 13.8346 9.60448C13.8985 9.5676 13.9615 9.52955 14.0262 9.49391C14.1069 9.44946 14.1894 9.40788 14.2713 9.36537C14.3376 9.33098 14.4031 9.29538 14.4702 9.26224C14.5524 9.2217 14.6363 9.18397 14.7196 9.14536C14.7885 9.11346 14.8566 9.08036 14.9262 9.04983C15.0097 9.01319 15.0947 8.97949 15.1793 8.94481C15.2506 8.91562 15.3212 8.88521 15.3931 8.85746C15.4776 8.82484 15.5636 8.7952 15.6491 8.76463C15.723 8.73812 15.7964 8.71041 15.871 8.68544C15.9561 8.657 16.0426 8.6315 16.1287 8.60503C16.2053 8.58143 16.2814 8.55665 16.3588 8.53465C16.4447 8.51019 16.5318 8.4888 16.6186 8.46636C16.6976 8.44592 16.7762 8.42429 16.856 8.40546C16.9427 8.38507 17.0305 8.36774 17.118 8.34932C17.1993 8.33222 17.28 8.31397 17.3619 8.2986C17.4492 8.28223 17.5375 8.269 17.6255 8.25464C17.709 8.24104 17.7921 8.22628 17.8762 8.2145C17.9636 8.20232 18.0517 8.19322 18.1397 8.18301C18.2137 8.17444 18.2868 8.16367 18.3612 8.1565C17.8503 3.80852 14.0366 0.415039 9.43694 0.415039C4.48384 0.415039 0.454163 4.33461 0.454163 9.15253V27.1394C0.454163 31.6158 3.93307 35.3167 8.39907 35.8189V18.8606C8.39907 18.6861 8.40346 18.5126 8.41189 18.3402Z"/>
<path d="M21.4569 8.28174C21.4961 8.28878 21.5355 8.2955 21.5747 8.3029C21.7257 8.33153 21.8759 8.36246 22.0247 8.39701C22.0439 8.40147 22.0629 8.40662 22.0821 8.41121C22.2134 8.44242 22.3436 8.47616 22.473 8.51192C22.514 8.52322 22.5549 8.53476 22.5955 8.5465C22.7242 8.58359 22.8519 8.6226 22.9786 8.66411C22.9972 8.67022 23.0161 8.67569 23.0347 8.68189C23.1775 8.72955 23.3188 8.78055 23.4588 8.83368C23.4961 8.8478 23.5331 8.86252 23.5702 8.87704C23.6817 8.92064 23.7923 8.96597 23.9019 9.01298C23.9352 9.02722 23.9687 9.04105 24.0018 9.05561C24.1376 9.11542 24.2721 9.1776 24.4049 9.24256C24.4322 9.25583 24.4589 9.26995 24.4861 9.28346C24.5952 9.33792 24.7032 9.39411 24.8102 9.4519C24.8467 9.47161 24.8832 9.49127 24.9194 9.51138C25.0489 9.58326 25.1774 9.65674 25.3036 9.73348C25.3049 9.73425 25.306 9.73501 25.3073 9.73578C25.4329 9.81224 25.5562 9.89187 25.6783 9.97304C25.7128 9.99592 25.747 10.0192 25.7812 10.0425C25.881 10.1104 25.9796 10.1799 26.077 10.2508C26.1011 10.2684 26.1256 10.2855 26.1496 10.3033C26.2669 10.3903 26.3822 10.4797 26.4958 10.571C26.5235 10.5934 26.5506 10.6163 26.5781 10.6388C26.6686 10.7131 26.7578 10.7887 26.8458 10.8657C26.8749 10.8912 26.9043 10.9165 26.9331 10.9423C27.0421 11.0398 27.1495 11.1388 27.2544 11.2403C27.2679 11.2534 27.2809 11.2669 27.2943 11.28C27.3868 11.3705 27.4775 11.4628 27.5668 11.5565C27.5946 11.5857 27.6223 11.6151 27.6498 11.6446C27.7387 11.74 27.8261 11.8367 27.9114 11.9351C27.9229 11.9483 27.9348 11.9611 27.9462 11.9744C28.0416 12.0855 28.1342 12.1989 28.2251 12.3138C28.2481 12.3428 28.2706 12.3723 28.2933 12.4016C28.3662 12.4957 28.4376 12.591 28.5074 12.6875C28.5266 12.7142 28.5464 12.7406 28.5655 12.7676C28.6503 12.8871 28.7328 13.0083 28.8127 13.1312C28.8273 13.1536 28.8411 13.1764 28.8555 13.1989C28.9219 13.303 28.9865 13.4082 29.0495 13.5145C29.0688 13.5473 29.0883 13.5799 29.1072 13.6128C29.239 13.8413 29.3635 14.0742 29.4783 14.3125C30.8564 11.4515 33.4933 9.27416 36.6905 8.45676C36.7042 8.45322 36.7181 8.44996 36.7318 8.4465C36.8908 8.40648 37.0512 8.3696 37.2129 8.33642C37.2249 8.33396 37.2367 8.33119 37.2487 8.32874C37.4146 8.29527 37.5819 8.26563 37.7504 8.23945C37.7771 8.23531 37.804 8.23168 37.8307 8.22774C37.9796 8.2057 38.1295 8.18643 38.2803 8.17027C38.3042 8.16773 38.3279 8.16463 38.3518 8.16222C38.3687 8.16053 38.3855 8.15816 38.4025 8.15651C37.8917 3.80852 34.0779 0.415039 29.4783 0.415039C24.8786 0.415039 21.0649 3.80852 20.554 8.15651C20.6968 8.17027 20.8384 8.1874 20.9794 8.20638C21.0158 8.21125 21.0518 8.217 21.088 8.22223C21.2116 8.24009 21.3345 8.25995 21.4569 8.28174Z"/>
<path d="M27.8803 37.7825C27.8394 37.7767 27.7986 37.7708 27.7578 37.7646C27.6652 37.7505 27.5731 37.735 27.4813 37.7187C27.448 37.7127 27.4147 37.707 27.3815 37.7007C27.2785 37.6814 27.1761 37.6605 27.074 37.6384C27.0527 37.6337 27.0312 37.6294 27.0099 37.6247C26.8872 37.5974 26.7654 37.5682 26.6443 37.537C26.6439 37.5368 26.6434 37.5367 26.6429 37.5366C23.4579 36.7139 20.8319 34.5405 19.4576 31.6875C18.084 34.539 15.4602 36.7116 12.2773 37.5352C12.2686 37.5375 12.2597 37.5395 12.2509 37.5417C12.1384 37.5706 12.0252 37.5979 11.9112 37.6233C11.883 37.6296 11.8547 37.6353 11.8264 37.6414C11.7316 37.6618 11.6364 37.6813 11.5406 37.6993C11.5012 37.7068 11.4615 37.7136 11.4219 37.7207C11.3367 37.7358 11.2514 37.7501 11.1655 37.7633C11.1188 37.7705 11.0719 37.7772 11.0249 37.7838C10.9454 37.795 10.8656 37.8054 10.7854 37.8149C10.7339 37.821 10.6823 37.8269 10.6305 37.8324C10.5981 37.8358 10.5659 37.8402 10.5334 37.8433C11.0443 42.1915 14.858 45.585 19.4576 45.585C24.0572 45.585 27.871 42.1915 28.3818 37.8435C28.3465 37.8401 28.3115 37.8353 28.2763 37.8316C28.2305 37.8268 28.1848 37.8215 28.1393 37.8161C28.0526 37.8059 27.9664 37.7947 27.8803 37.7825Z"/>
<path d="M10.6377 35.7965C10.7103 35.787 10.783 35.7781 10.8551 35.767C10.9202 35.7569 10.9847 35.7445 11.0494 35.7331C11.128 35.7191 11.2069 35.706 11.2847 35.6901C11.3315 35.6805 11.3775 35.669 11.424 35.6587C12.0511 35.5201 12.6541 35.3189 13.2242 35.0596C13.2294 35.0572 13.2347 35.055 13.2399 35.0527C13.3556 34.9997 13.4699 34.9442 13.5829 34.8867C13.5903 34.8829 13.5978 34.8793 13.6052 34.8755C13.718 34.8177 13.8294 34.7575 13.9393 34.6952C13.9459 34.6915 13.9525 34.6879 13.9589 34.6842C14.0703 34.6207 14.1801 34.555 14.2883 34.4871C14.2924 34.4846 14.2964 34.4821 14.3004 34.4796C14.4111 34.4098 14.5203 34.3379 14.6277 34.2636C14.628 34.2634 14.6282 34.2632 14.6286 34.263C15.8263 33.434 16.8074 32.3268 17.4713 31.0402C17.4734 31.0361 17.4756 31.0322 17.4778 31.0281C17.5313 30.9238 17.5822 30.8181 17.6315 30.7115C17.6404 30.6925 17.6494 30.6735 17.6581 30.6544C17.7021 30.5576 17.7438 30.4596 17.7843 30.361C17.7966 30.3309 17.8089 30.3009 17.8209 30.2706C17.8571 30.1794 17.8915 30.0873 17.9246 29.9947C17.9386 29.9555 17.9523 29.9161 17.9658 29.8766C17.9952 29.7901 18.0234 29.703 18.0501 29.6153C18.0646 29.5679 18.0783 29.5202 18.092 29.4724C18.1154 29.3904 18.1381 29.3081 18.1591 29.2251C18.1731 29.1697 18.186 29.1137 18.1989 29.0578C18.2169 28.9804 18.2346 28.903 18.2504 28.8248C18.2633 28.7611 18.2744 28.6968 18.2858 28.6326C18.2987 28.5603 18.312 28.4881 18.323 28.4153C18.3341 28.3417 18.3429 28.2674 18.3521 28.1933C18.3602 28.1281 18.3693 28.0632 18.376 27.9976C18.3849 27.9086 18.3908 27.8189 18.397 27.7292C18.4006 27.6767 18.4058 27.6247 18.4085 27.5721C18.4157 27.4287 18.4197 27.2845 18.4197 27.1394H19.4576H20.4955C20.4955 27.2845 20.4996 27.4287 20.5068 27.5721C20.5095 27.6247 20.5147 27.6767 20.5183 27.7292C20.5244 27.8189 20.5304 27.9086 20.5393 27.9976C20.5459 28.0632 20.555 28.1281 20.5632 28.1933C20.5724 28.2674 20.5812 28.3417 20.5922 28.4153C20.6033 28.4881 20.6166 28.5603 20.6295 28.6326C20.6409 28.6968 20.652 28.7611 20.6649 28.8248C20.6806 28.903 20.6984 28.9804 20.7164 29.0578C20.7293 29.1137 20.7421 29.1696 20.7562 29.2251C20.7772 29.3081 20.7998 29.3904 20.8233 29.4724C20.8369 29.5202 20.8507 29.5679 20.8652 29.6153C20.8919 29.7031 20.9201 29.7902 20.9496 29.8767C20.9629 29.9161 20.9766 29.9553 20.9906 29.9945C21.0238 30.0873 21.0582 30.1796 21.0945 30.271C21.1064 30.3009 21.1186 30.3307 21.1309 30.3605C21.1714 30.4593 21.2131 30.5575 21.2572 30.6546C21.2659 30.6736 21.2749 30.6924 21.2837 30.7114C21.3331 30.8179 21.3839 30.9237 21.4375 31.028C21.4397 31.0321 21.4419 31.0362 21.444 31.0403C22.1078 32.3266 23.0885 33.4335 24.2859 34.2624C24.2867 34.263 24.2876 34.2636 24.2885 34.2642C24.3952 34.338 24.5037 34.4095 24.6139 34.4789C24.6187 34.4819 24.6235 34.4849 24.6283 34.4879C24.7358 34.5553 24.8448 34.6206 24.9553 34.6835C24.9628 34.6878 24.9704 34.692 24.9779 34.6962C25.0869 34.7579 25.1972 34.8176 25.309 34.875C25.3177 34.8794 25.3266 34.8836 25.3353 34.8881C25.447 34.9449 25.5598 34.9998 25.6742 35.052C25.6815 35.0554 25.689 35.0584 25.6963 35.0618C26.2593 35.3175 26.8544 35.5164 27.473 35.6545C27.5263 35.6664 27.5792 35.6795 27.6329 35.6905C27.7058 35.7054 27.7796 35.7176 27.8531 35.7307C27.923 35.7432 27.9927 35.7564 28.0632 35.7673C28.1308 35.7778 28.1991 35.7861 28.2672 35.795C28.3248 35.8026 28.3825 35.81 28.4404 35.8165V18.8605C28.4404 18.1078 28.3421 17.377 28.1572 16.6796C28.0832 16.4007 27.9954 16.127 27.8945 15.8595C27.844 15.7258 27.7903 15.5936 27.7334 15.4629C27.6196 15.2017 27.4932 14.9469 27.3547 14.6993C25.8318 11.9759 22.8632 10.1233 19.4581 10.123H19.4572C14.5043 10.1234 10.4748 14.0429 10.4748 18.8605L10.4753 35.8166C10.5297 35.8105 10.5837 35.8036 10.6377 35.7965Z"/>
<path d="M40.5228 27.6761C40.5202 27.7284 40.5148 27.7801 40.5113 27.8323C40.5031 27.9579 40.4945 28.0834 40.4819 28.2078C40.476 28.2655 40.4675 28.3225 40.4607 28.3799C40.4466 28.4986 40.4323 28.6171 40.4142 28.7345C40.4056 28.7902 40.395 28.8453 40.3855 28.9007C40.3653 29.0196 40.3444 29.1382 40.3202 29.2557C40.3097 29.3069 40.2975 29.3575 40.2862 29.4084C40.2592 29.5298 40.2312 29.6508 40.2 29.7706C40.1882 29.8161 40.1752 29.8611 40.1628 29.9064C40.1286 30.0314 40.0928 30.1556 40.0541 30.2787C40.0418 30.3177 40.0288 30.3565 40.0159 30.3953C39.9737 30.5245 39.9293 30.6526 39.8822 30.7797C39.8704 30.8115 39.8582 30.843 39.8461 30.8747C39.7948 31.0089 39.7411 31.1418 39.6845 31.2735C39.6742 31.2971 39.664 31.3208 39.6536 31.3444C39.5923 31.4843 39.5279 31.6227 39.4607 31.7596C39.4534 31.7744 39.4461 31.7892 39.4389 31.804C39.3658 31.9509 39.2896 32.0958 39.21 32.2389C39.2075 32.2435 39.205 32.2482 39.2024 32.2528C38.1861 34.074 36.6457 35.5787 34.7784 36.5751C34.7689 36.5802 34.7594 36.585 34.7499 36.5901C34.6082 36.6651 34.4648 36.7373 34.3195 36.8064C34.2986 36.8164 34.2776 36.826 34.2566 36.8359C34.1223 36.8988 33.9865 36.9592 33.8492 37.0169C33.8186 37.0297 33.788 37.0424 33.7574 37.055C33.6289 37.1076 33.4994 37.1579 33.3687 37.2058C33.3294 37.2203 33.2901 37.2346 33.2506 37.2487C33.1273 37.2924 33.0028 37.3337 32.8775 37.3732C32.8308 37.3879 32.7841 37.4028 32.7372 37.4169C32.6179 37.4528 32.4976 37.4861 32.3766 37.5182C32.3232 37.5323 32.27 37.5469 32.2162 37.5603C32.1005 37.5891 31.9836 37.6151 31.8664 37.6403C31.8071 37.6531 31.7481 37.6666 31.6884 37.6785C31.5751 37.7009 31.4607 37.7204 31.3462 37.7394C31.2822 37.7501 31.2185 37.7618 31.1541 37.7714C31.0416 37.7881 30.928 37.8015 30.8144 37.8149C30.7475 37.8227 30.681 37.8321 30.6137 37.8388C30.6006 37.8401 30.5878 37.8422 30.5747 37.8435C31.0855 42.1916 34.8992 45.5851 39.4989 45.5851C44.452 45.5851 48.4817 41.6656 48.4817 36.8476V18.8607C48.4817 14.3842 45.0029 10.6833 40.5368 10.1812V27.1395C40.5368 27.3195 40.5318 27.4983 40.5228 27.6761Z"/>
<path d="M30.679 35.7968C30.7515 35.7873 30.8243 35.7784 30.8963 35.7672C30.9616 35.7571 31.026 35.7448 31.0907 35.7334C31.1693 35.7194 31.2482 35.7063 31.326 35.6904C31.3728 35.6808 31.4188 35.6693 31.4654 35.659C32.0924 35.5204 32.6954 35.3192 33.2655 35.0599C33.2707 35.0575 33.276 35.0553 33.2811 35.053C33.3969 35 33.5112 34.9445 33.6242 34.887C33.6316 34.8832 33.6391 34.8796 33.6466 34.8758C33.7594 34.818 33.8707 34.7578 33.9806 34.6955C33.9871 34.6918 33.9937 34.6882 34.0003 34.6845C34.1116 34.621 34.2214 34.5553 34.3297 34.4874C34.3336 34.4849 34.3377 34.4824 34.3417 34.4799C34.4525 34.4101 34.5616 34.3382 34.669 34.2639C34.6693 34.2637 34.6696 34.2635 34.6698 34.2633C35.8676 33.4343 36.8488 32.3271 37.5127 31.0405C37.5147 31.0364 37.517 31.0324 37.519 31.0284C37.5726 30.9241 37.6235 30.8184 37.6728 30.7118C37.6816 30.6928 37.6907 30.6738 37.6994 30.6547C37.7434 30.5579 37.7851 30.4599 37.8256 30.3613C37.8378 30.3312 37.8502 30.3012 37.8622 30.2709C37.8984 30.1797 37.9328 30.0876 37.9659 29.995C37.9799 29.9557 37.9936 29.9164 38.0071 29.8769C38.0366 29.7904 38.0648 29.7033 38.0915 29.6156C38.1059 29.5682 38.1197 29.5205 38.1333 29.4727C38.1567 29.3907 38.1794 29.3084 38.2005 29.2254C38.2144 29.1699 38.2273 29.114 38.2402 29.0581C38.2582 28.9807 38.2759 28.9032 38.2918 28.8251C38.3046 28.7613 38.3157 28.6971 38.3271 28.6328C38.34 28.5606 38.3533 28.4884 38.3643 28.4156C38.3755 28.342 38.3842 28.2677 38.3934 28.1936C38.4015 28.1284 38.4106 28.0634 38.4172 27.9978C38.4262 27.9089 38.4321 27.8191 38.4383 27.7294C38.4419 27.677 38.4472 27.625 38.4498 27.5723C38.457 27.429 38.4611 27.2848 38.4611 27.1397L38.4606 10.1836C38.4018 10.1902 38.3433 10.1977 38.2848 10.2054C38.2182 10.2142 38.1513 10.2223 38.085 10.2325C38.0122 10.2438 37.9402 10.2574 37.868 10.2703C37.7969 10.2831 37.7254 10.2949 37.6549 10.3093C37.5966 10.3211 37.5393 10.3354 37.4815 10.3483C36.9992 10.4567 36.5309 10.6012 36.0815 10.782C36.0773 10.7837 36.0731 10.7852 36.0691 10.7868C35.9534 10.8335 35.8394 10.883 35.7263 10.9342C35.7151 10.9393 35.7038 10.944 35.6926 10.9491C35.5814 11 35.4717 11.0534 35.3631 11.1085C35.3511 11.1146 35.339 11.1204 35.327 11.1265C35.2181 11.1824 35.1106 11.2406 35.0043 11.3007C34.9939 11.3066 34.9834 11.3123 34.973 11.3183C34.865 11.3799 34.7585 11.4437 34.6535 11.5094C34.6461 11.5141 34.6387 11.5186 34.6313 11.5233C34.5236 11.5912 34.4173 11.6612 34.3129 11.7335C34.3095 11.7357 34.3062 11.738 34.3029 11.7403C33.1083 12.5682 32.1296 13.6728 31.4665 14.9564C31.4635 14.9621 31.4604 14.9677 31.4575 14.9734C31.4045 15.0766 31.3542 15.1813 31.3053 15.2867C31.2961 15.3067 31.2865 15.3266 31.2774 15.3467C31.2338 15.4427 31.1924 15.5399 31.1523 15.6377C31.1397 15.6686 31.1269 15.6995 31.1145 15.7306C31.0787 15.8212 31.0445 15.9127 31.0116 16.0047C30.9974 16.0444 30.9835 16.0843 30.9699 16.1242C30.9405 16.2104 30.9125 16.2971 30.8859 16.3843C30.8713 16.4321 30.8575 16.4802 30.8438 16.5284C30.8204 16.61 30.7978 16.692 30.7769 16.7746C30.7627 16.8305 30.7498 16.8868 30.7368 16.9431C30.7189 17.0202 30.7013 17.0973 30.6856 17.1751C30.6726 17.2391 30.6614 17.3037 30.65 17.3683C30.6371 17.4403 30.624 17.5122 30.6129 17.5848C30.6018 17.6586 30.593 17.7331 30.5838 17.8074C30.5757 17.8724 30.5666 17.9371 30.56 18.0026C30.551 18.0917 30.5451 18.1815 30.5389 18.2713C30.5353 18.3236 30.5301 18.3755 30.5275 18.4281C30.5202 18.5715 30.5161 18.7157 30.5161 18.8608V35.817C30.5706 35.8108 30.6248 35.8039 30.679 35.7968Z"/>
<path d="M68.3766 31.5758C66.897 30.7736 65.7451 29.6412 64.9204 28.1786C64.0957 26.7157 63.6834 25.0408 63.6834 23.1534C63.6834 21.2033 64.1199 19.5048 64.993 18.0574C65.8662 16.6107 67.0342 15.5059 68.4979 14.7428C69.9611 13.9802 71.5497 13.5986 73.2638 13.5986C74.5573 13.5986 75.7779 13.8226 76.9264 14.2709C78.0742 14.7193 79.0727 15.3681 79.9217 16.2174C80.7705 17.0667 81.405 18.0811 81.8257 19.2606L79.0122 20.3696C78.4945 19.1426 77.7388 18.1754 76.7444 17.4677C75.7499 16.7599 74.5737 16.406 73.2154 16.406C72.0348 16.406 70.9635 16.6855 70.0016 17.2435C69.0395 17.802 68.2796 18.6001 67.7217 19.6382C67.1639 20.6763 66.8849 21.8953 66.8849 23.2951C66.8849 24.7894 67.204 26.0397 67.843 27.0462C68.4815 28.0528 69.3021 28.7919 70.3049 29.2638C71.3073 29.7355 72.3664 29.9715 73.4821 29.9715C74.4845 29.9715 75.3983 29.7829 76.223 29.4053C77.0475 29.0279 77.7547 28.4774 78.3452 27.7538C78.9353 27.0307 79.384 26.1814 79.6912 25.2059L82.5048 26.1495C81.7932 28.3045 80.6493 29.948 79.0727 31.0804C77.4962 32.2126 75.6082 32.7788 73.4095 32.7788C71.5335 32.7788 69.8561 32.3777 68.3766 31.5758Z"/>
<path d="M87.4284 31.8944C86.3771 31.3045 85.5609 30.487 84.9788 29.4408C84.3967 28.3949 84.1056 27.1959 84.1056 25.843C84.1056 24.4904 84.3967 23.2874 84.9788 22.2333C85.5609 21.1797 86.3771 20.3579 87.4284 19.768C88.4793 19.1781 89.6758 18.8833 91.0182 18.8833C92.3601 18.8833 93.5527 19.1781 94.5956 19.768C95.6385 20.3579 96.4511 21.1797 97.0332 22.2333C97.6153 23.2874 97.9064 24.4904 97.9064 25.843C97.9064 27.1959 97.6153 28.3949 97.0332 29.4408C96.4511 30.487 95.6385 31.3045 94.5956 31.8944C93.5527 32.4842 92.3601 32.7789 91.0182 32.7789C89.6758 32.7789 88.4793 32.4842 87.4284 31.8944ZM93.0432 29.5824C93.6333 29.213 94.0943 28.7057 94.4258 28.0607C94.757 27.4159 94.9231 26.6768 94.9231 25.843C94.9231 25.0094 94.757 24.2664 94.4258 23.6134C94.0943 22.9611 93.6333 22.4498 93.0432 22.08C92.4529 21.7107 91.778 21.5257 91.0182 21.5257C90.2579 21.5257 89.5786 21.7107 88.9806 22.08C88.3824 22.4498 87.9215 22.9611 87.5982 23.6134C87.2746 24.2664 87.113 25.0094 87.113 25.843C87.113 26.6768 87.2787 27.4159 87.6103 28.0607C87.9416 28.7057 88.4024 29.213 88.9929 29.5824C89.5829 29.9521 90.2579 30.1367 91.0182 30.1367C91.778 30.1367 92.4529 29.9521 93.0432 29.5824Z"/>
<path d="M101.011 19.2607H103.824V21.3604H103.873C104.342 20.5429 104.96 19.9254 105.728 19.5086C106.496 19.092 107.309 18.8833 108.166 18.8833C109.071 18.8833 109.9 19.1037 110.652 19.5438C111.404 19.9845 111.95 20.645 112.289 21.5257H112.338C112.952 20.5819 113.651 19.9059 114.436 19.4967C115.22 19.0878 116.032 18.8833 116.873 18.8833C117.714 18.8833 118.494 19.0761 119.214 19.4612C119.933 19.8468 120.52 20.4327 120.972 21.2189C121.425 22.0056 121.651 22.9728 121.651 24.1208V32.3778H118.765V25.206C118.765 24.4198 118.664 23.7633 118.462 23.236C118.26 22.7092 117.961 22.2924 117.565 21.9857C117.168 21.6789 116.663 21.5257 116.049 21.5257C115.418 21.5257 114.86 21.6831 114.375 21.9974C113.89 22.3124 113.502 22.7683 113.211 23.3658C112.92 23.9638 112.774 24.6557 112.774 25.442V32.3778H109.888V25.3475C109.888 24.5141 109.795 23.8259 109.609 23.2832C109.423 22.7407 109.124 22.3124 108.712 21.9974C108.299 21.6831 107.778 21.5257 107.147 21.5257C106.533 21.5257 105.979 21.6831 105.486 21.9974C104.993 22.3124 104.601 22.7683 104.31 23.3658C104.019 23.9638 103.873 24.6557 103.873 25.442V32.3778H101.011L101.011 19.2607Z"/>
<path d="M125.483 13.5044H128.345V21.3606H128.394C128.879 20.5272 129.497 19.9061 130.249 19.4969C131.001 19.088 131.822 18.8835 132.711 18.8835C133.568 18.8835 134.356 19.0685 135.076 19.438C135.795 19.8076 136.377 20.3858 136.822 21.172C137.267 21.9586 137.489 22.9414 137.489 24.121V32.378H134.603V25.3476C134.603 24.5457 134.506 23.8695 134.312 23.3188C134.118 22.7685 133.806 22.332 133.378 22.0095C132.949 21.6873 132.396 21.5259 131.717 21.5259C131.07 21.5259 130.492 21.6833 129.983 21.9976C129.473 22.3125 129.073 22.7643 128.782 23.3542C128.491 23.9441 128.345 24.64 128.345 25.4421V32.378H125.483L125.483 13.5044Z"/>
<path d="M142.655 32.366C141.976 32.0911 141.43 31.6743 141.018 31.1159C140.606 30.5576 140.399 29.8772 140.399 29.0751C140.399 28.2889 140.597 27.6324 140.994 27.1051C141.39 26.5783 141.919 26.1615 142.582 25.8548C143.245 25.548 144.021 25.3003 144.911 25.1117C145.056 25.0803 145.242 25.049 145.469 25.0172C146.471 24.8131 147.199 24.6515 147.652 24.5336C148.104 24.4156 148.44 24.2546 148.658 24.0499C148.876 23.8458 148.985 23.5627 148.985 23.2006C148.985 22.8389 148.884 22.5009 148.682 22.1862C148.48 21.8717 148.185 21.624 147.797 21.4431C147.409 21.2625 146.964 21.1718 146.463 21.1718C145.768 21.1718 145.161 21.3685 144.644 21.7614C144.126 22.1548 143.754 22.7212 143.528 23.4603L140.836 22.5636C141.224 21.3055 141.94 20.3778 142.982 19.7797C144.025 19.1823 145.234 18.8833 146.609 18.8833C147.643 18.8833 148.561 19.0524 149.361 19.3906C150.162 19.7288 150.788 20.2399 151.241 20.9241C151.694 21.6083 151.92 22.4538 151.92 23.4603V28.6269C151.936 29.5078 151.977 30.2157 152.042 30.7502C152.106 31.285 152.211 31.8277 152.357 32.3778H149.471C149.373 32.0475 149.305 31.7255 149.264 31.4107C149.224 31.0962 149.204 30.7425 149.204 30.3491H149.155C148.767 31.0884 148.197 31.6783 147.445 32.1184C146.694 32.5584 145.832 32.7789 144.862 32.7789C144.07 32.7789 143.334 32.641 142.655 32.366ZM147.397 30.1132C147.906 29.7829 148.302 29.3664 148.585 28.8628C148.868 28.3595 149.01 27.8564 149.01 27.3528V26.079C148.67 26.2204 148.391 26.3346 148.173 26.4209C147.955 26.5077 147.659 26.598 147.288 26.6923C147.061 26.7395 146.706 26.8183 146.22 26.9283C145.703 27.0385 145.258 27.1682 144.886 27.3174C144.514 27.4672 144.199 27.6795 143.941 27.9544C143.682 28.2298 143.553 28.572 143.553 28.9808C143.553 29.4843 143.742 29.8812 144.123 30.1721C144.502 30.4633 145.008 30.6086 145.638 30.6086C146.301 30.6086 146.887 30.4434 147.397 30.1132Z"/>
<path d="M155.886 16.3355C155.522 15.9738 155.34 15.5333 155.34 15.0143C155.34 14.6998 155.421 14.4009 155.583 14.1178C155.744 13.8347 155.971 13.6145 156.262 13.4571C156.553 13.3002 156.876 13.2212 157.232 13.2212C157.749 13.2212 158.186 13.3983 158.542 13.7522C158.897 14.1059 159.075 14.5269 159.075 15.0143C159.075 15.3605 158.994 15.6748 158.833 15.9579C158.671 16.241 158.448 16.4652 158.166 16.6303C157.883 16.7955 157.571 16.878 157.232 16.878C156.698 16.878 156.25 16.6974 155.886 16.3355ZM155.777 19.2608H158.639V32.3779H155.777V19.2608Z"/>
<path d="M162.64 19.2607H165.454V21.4783H165.551C165.923 20.708 166.452 20.0828 167.14 19.6029C167.827 19.1232 168.623 18.8833 169.529 18.8833C170.014 18.8833 170.466 18.9621 170.887 19.1192V22.2333C170.644 22.1548 170.373 22.0919 170.074 22.0445C169.775 21.9974 169.496 21.9739 169.237 21.9739C168.3 21.9739 167.552 22.2139 166.994 22.6935C166.436 23.1734 166.052 23.7633 165.842 24.4629C165.632 25.1628 165.518 25.9455 165.502 26.8103V32.3778H162.64V19.2607Z"/>
<path d="M173.385 13.5044H176.247V32.378H173.385V13.5044Z"/>
<path d="M182.686 31.9183C181.644 31.3443 180.823 30.5344 180.224 29.4881C179.626 28.4425 179.327 27.2351 179.327 25.8667C179.327 24.5302 179.614 23.3306 180.188 22.269C180.762 21.2074 181.559 20.3738 182.577 19.7683C183.596 19.1629 184.752 18.8599 186.046 18.8599C187.177 18.8599 188.224 19.1 189.187 19.5795C190.148 20.0595 190.933 20.8181 191.539 21.8562C192.146 22.8943 192.449 24.1998 192.449 25.7724V26.6217H182.262C182.343 27.3767 182.561 28.0255 182.917 28.568C183.272 29.1108 183.737 29.5236 184.311 29.8067C184.885 30.0898 185.528 30.2314 186.24 30.2314C187.048 30.2314 187.768 30.0154 188.398 29.5826C189.029 29.1501 189.506 28.5563 189.829 27.8013L192.546 28.8394C192.077 30.0189 191.28 30.9709 190.157 31.6941C189.033 32.417 187.727 32.7791 186.24 32.7791C184.914 32.7791 183.729 32.492 182.686 31.9183ZM188.896 22.6701C188.564 22.2219 188.147 21.8916 187.646 21.6791C187.145 21.4669 186.603 21.3606 186.021 21.3606C185.391 21.3606 184.821 21.4905 184.311 21.75C183.802 22.0096 183.39 22.3715 183.074 22.8352C182.759 23.2994 182.537 23.8301 182.407 24.4278H189.49C189.425 23.7044 189.227 23.1183 188.896 22.6701Z"/>
</svg>
